<?xml version="1.0" standalone="no"?><!DOCTYPE svg PUBLIC "-//W3C//DTD SVG 1.1//EN" "http://www.w3.org/Graphics/SVG/1.1/DTD/svg11.dtd"><svg width="100%" height="100%" viewBox="0 0 73 42" version="1.1" xmlns="http://www.w3.org/2000/svg" xmlns:xlink="http://www.w3.org/1999/xlink" xml:space="preserve" style="fill-rule:evenodd;clip-rule:evenodd;stroke-linejoin:round;stroke-miterlimit:1.41421;"><path d="M29.25,25.875c7.125,0 12.9,-5.775 12.9,-12.9c0,-7.125 -5.775,-12.975 -12.9,-12.975c-7.125,0 -12.975,5.775 -12.975,12.9c0,7.125 5.85,12.975 12.975,12.975ZM29.25,1.5c6.3,0 11.4,5.1 11.4,11.4c0,6.3 -5.1,11.4 -11.4,11.4c-6.3,0 -11.475,-5.1 -11.475,-11.4c0,-6.3 5.175,-11.4 11.475,-11.4Z" style="fill:url(#_Linear1);fill-rule:nonzero;"/><path d="M29.25,18.825c3.225,0 5.85,-2.625 5.85,-5.85c0,-3.225 -2.625,-5.85 -5.85,-5.85c-3.225,0 -5.85,2.625 -5.85,5.85c0,3.225 2.625,5.85 5.85,5.85ZM29.25,8.55c2.4,0 4.35,1.95 4.35,4.35c0,2.4 -1.95,4.35 -4.35,4.35c-2.4,0 -4.35,-1.95 -4.35,-4.35c0,-2.4 1.95,-4.35 4.35,-4.35Z" style="fill:url(#_Linear2);fill-rule:nonzero;"/><path d="M35.25,34.05c0,-0.45 -0.3,-0.75 -0.75,-0.75l-20.925,0l-12.3,-12.225c-0.3,-0.3 -0.75,-0.3 -1.05,0c-0.3,0.3 -0.3,0.75 0,1.05l12.525,12.525c0.15,0.15 0.3,0.225 0.525,0.225l21.225,0c0.45,-0.075 0.75,-0.375 0.75,-0.825Z" style="fill:url(#_Linear3);fill-rule:nonzero;"/><path d="M72.15,24.825c-0.225,-0.375 -0.675,-0.45 -1.05,-0.225l-25.05,15.75l-21,0c-0.45,0 -0.75,0.3 -0.75,0.75c0,0.45 0.3,0.75 0.75,0.75l21.225,0c0.15,0 0.3,-0.075 0.375,-0.15l25.275,-15.9c0.375,-0.225 0.45,-0.675 0.225,-0.975Z" style="fill:url(#_Linear4);fill-rule:nonzero;"/><defs><linearGradient id="_Linear1" x1="0" y1="0" x2="1" y2="0" gradientUnits="userSpaceOnUse" gradientTransform="matrix(12.935,-22.404,22.404,12.9349,22.8046,24.1465)"><stop offset="0%" style="stop-color:#5265ff;stop-opacity:1"/><stop offset="4%" style="stop-color:#516fff;stop-opacity:1"/><stop offset="26%" style="stop-color:#4b9cfd;stop-opacity:1"/><stop offset="47%" style="stop-color:#46c0fc;stop-opacity:1"/><stop offset="67%" style="stop-color:#43dafb;stop-opacity:1"/><stop offset="85%" style="stop-color:#41eafa;stop-opacity:1"/><stop offset="100%" style="stop-color:#40effa;stop-opacity:1"/></linearGradient><linearGradient id="_Linear2" x1="0" y1="0" x2="1" y2="0" gradientUnits="userSpaceOnUse" gradientTransform="matrix(5.85645,-10.1437,10.1437,5.85645,26.3437,18.0163)"><stop offset="0%" style="stop-color:#5265ff;stop-opacity:1"/><stop offset="4%" style="stop-color:#516fff;stop-opacity:1"/><stop offset="26%" style="stop-color:#4b9cfd;stop-opacity:1"/><stop offset="47%" style="stop-color:#46c0fc;stop-opacity:1"/><stop offset="67%" style="stop-color:#43dafb;stop-opacity:1"/><stop offset="85%" style="stop-color:#41eafa;stop-opacity:1"/><stop offset="100%" style="stop-color:#40effa;stop-opacity:1"/></linearGradient><linearGradient id="_Linear3" x1="0" y1="0" x2="1" y2="0" gradientUnits="userSpaceOnUse" gradientTransform="matrix(6.06008,-10.4963,10.4963,6.06008,13.4742,35.0515)"><stop offset="0%" style="stop-color:#5265ff;stop-opacity:1"/><stop offset="4%" style="stop-color:#516fff;stop-opacity:1"/><stop offset="26%" style="stop-color:#4b9cfd;stop-opacity:1"/><stop offset="47%" style="stop-color:#46c0fc;stop-opacity:1"/><stop offset="67%" style="stop-color:#43dafb;stop-opacity:1"/><stop offset="85%" style="stop-color:#41eafa;stop-opacity:1"/><stop offset="100%" style="stop-color:#40effa;stop-opacity:1"/></linearGradient><linearGradient id="_Linear4" x1="0" y1="0" x2="1" y2="0" gradientUnits="userSpaceOnUse" gradientTransform="matrix(19.2463,-33.3356,33.3356,19.2463,38.6569,49.8014)"><stop offset="0%" style="stop-color:#5265ff;stop-opacity:1"/><stop offset="4%" style="stop-color:#516fff;stop-opacity:1"/><stop offset="26%" style="stop-color:#4b9cfd;stop-opacity:1"/><stop offset="47%" style="stop-color:#46c0fc;stop-opacity:1"/><stop offset="67%" style="stop-color:#43dafb;stop-opacity:1"/><stop offset="85%" style="stop-color:#41eafa;stop-opacity:1"/><stop offset="100%" style="stop-color:#40effa;stop-opacity:1"/></linearGradient></defs></svg>