<svg id="ICONS_-_HOVER" data-name="ICONS - HOVER" xmlns="http://www.w3.org/2000/svg" xmlns:xlink="http://www.w3.org/1999/xlink" width="110" height="100" viewBox="0 0 110 100"><defs><linearGradient id="ARTS_GRADIENT_hover" x1="54.12" y1="80.32" x2="79.62" y2="36.15" gradientUnits="userSpaceOnUse"><stop offset="0" stop-color="#5265ff"/><stop offset="0.04" stop-color="#516fff"/><stop offset="0.27" stop-color="#4b9cfd"/><stop offset="0.48" stop-color="#46c0fc"/><stop offset="0.68" stop-color="#43dafb"/><stop offset="0.86" stop-color="#41eafa"/><stop offset="1" stop-color="#40effa"/></linearGradient><linearGradient id="ARTS_GRADIENT_hover-2" x1="43.19" y1="76.09" x2="68.65" y2="32" xlink:href="#ARTS_GRADIENT_hover"/><linearGradient id="ARTS_GRADIENT_hover-3" x1="34.6" y1="69.61" x2="58.4" y2="28.38" xlink:href="#ARTS_GRADIENT_hover"/><linearGradient id="ARTS_GRADIENT_hover-4" x1="26.2" y1="62.94" x2="47.41" y2="26.2" xlink:href="#ARTS_GRADIENT_hover"/><linearGradient id="ARTS_GRADIENT_hover-5" x1="36.85" y1="62.21" x2="41.5" y2="54.15" xlink:href="#ARTS_GRADIENT_hover"/><linearGradient id="ARTS_GRADIENT_hover-6" x1="48.64" y1="57.43" x2="52.96" y2="49.95" xlink:href="#ARTS_GRADIENT_hover"/><linearGradient id="ARTS_GRADIENT_hover-7" x1="58.42" y1="53.31" x2="63.72" y2="44.14" xlink:href="#ARTS_GRADIENT_hover"/><linearGradient id="ARTS_GRADIENT_hover-8" x1="68.57" y1="49.63" x2="74.5" y2="39.36" xlink:href="#ARTS_GRADIENT_hover"/></defs><title>ARTS ICONS</title><path d="M41.45,73c-.17,0-.27-.12-.25-.4a1.18,1.18,0,0,1,.42-.86c9.21-5.61,20.13-6.52,29.22-12.13C78.57,54.78,84,47.9,91.81,43.5a.54.54,0,0,1,.71.15.51.51,0,0,1-.14.7c-7.78,4.3-12.76,11.49-20.53,16.39C62.48,66.66,50.9,67,41.58,72.89Z" fill="url(#ARTS_GRADIENT_hover)"/><path d="M30.51,68.66a1,1,0,0,1-.68-.34c-.21-.25-.15-.51,0-.6,9.17-4.38,20.3-5.08,29.82-11.09,8.83-5.57,11.79-12.25,21.63-17a.64.64,0,0,1,.79.18.48.48,0,0,1-.27.66c-9,4.56-13.62,11.64-22.22,16.63-9.37,5.43-20.93,7.63-29,11.52A.38.38,0,0,1,30.51,68.66Z" fill="url(#ARTS_GRADIENT_hover-2)"/><path d="M21.17,61.77c-.15.05-.3-.08-.38-.34a.93.93,0,0,1,.11-.86c8.37-6,21.2-4.16,30.82-9.93C59.47,46,63.15,39,71.89,36.46c.28-.08.58-.05.62.15s-.2.51-.48.59C63.49,39.48,60,47.31,52.62,52c-9.7,6.14-22.64,3.43-31.36,9.71Z" fill="url(#ARTS_GRADIENT_hover-3)"/><path d="M12.77,55c-.13.16-.24.15-.25-.08a1.56,1.56,0,0,1,.3-.9c6.1-4.66,21-4.71,30.32-8.68,8-3.43,7-8.15,16.83-11.24a1.36,1.36,0,0,1,1.16.06c.22.21.07.55-.31.69C53.49,37.6,50.07,43.24,43.14,46,33.41,50,18.68,49.95,12.82,54.9Z" fill="url(#ARTS_GRADIENT_hover-4)"/><path d="M67.1,69C45.1,64.31,27.73,55.59,14,42.36a1.5,1.5,0,0,0-2.08,2.16c14.13,13.63,32,22.61,54.54,27.43A1.5,1.5,0,0,0,67.1,69Z" fill="url(#ARTS_GRADIENT_hover-5)"/><path d="M77.31,64.06C49.74,57.89,33.18,46.64,25.77,40.48A1,1,0,1,0,24.49,42C32,48.29,48.89,59.75,76.87,66l.22,0a1,1,0,0,0,.22-2Z" fill="url(#ARTS_GRADIENT_hover-6)"/><path d="M88.94,58.74c-21.52-2.94-42-11.09-54.82-21.81a.5.5,0,0,0-.64.77c12.95,10.83,33.63,19.06,55.33,22h.07a.5.5,0,0,0,.07-1Z" fill="url(#ARTS_GRADIENT_hover-7)"/><path d="M97.88,52.91c-21.71-2.46-38.75-8.39-52.1-18.11a.5.5,0,1,0-.59.81c13.49,9.83,30.69,15.81,52.58,18.3h.06a.5.5,0,0,0,.06-1Z" fill="url(#ARTS_GRADIENT_hover-8)"/></svg>