<svg id="top_master" data-name="top master" xmlns="http://www.w3.org/2000/svg" width="110" height="100" viewBox="0 0 110 100"><title>ARTS ICONS</title><path d="M41.45,73c-.17,0-.27-.12-.25-.4a1.18,1.18,0,0,1,.42-.86c9.21-5.61,20.13-6.52,29.22-12.13C78.57,54.78,84,47.9,91.81,43.5a.54.54,0,0,1,.71.15.51.51,0,0,1-.14.7c-7.78,4.3-12.76,11.49-20.53,16.39C62.48,66.66,50.9,67,41.58,72.89Z"/><path d="M30.51,68.66a1,1,0,0,1-.68-.34c-.21-.25-.15-.51,0-.6,9.17-4.38,20.3-5.08,29.82-11.09,8.83-5.57,11.79-12.25,21.63-17a.64.64,0,0,1,.79.18.48.48,0,0,1-.27.66c-9,4.56-13.62,11.64-22.22,16.63-9.37,5.43-20.93,7.63-29,11.52A.38.38,0,0,1,30.51,68.66Z"/><path d="M21.17,61.77c-.15.05-.3-.08-.38-.34a.93.93,0,0,1,.11-.86c8.37-6,21.2-4.16,30.82-9.93C59.47,46,63.15,39,71.89,36.46c.28-.08.58-.05.62.15s-.2.51-.48.59C63.49,39.48,60,47.31,52.62,52c-9.7,6.14-22.64,3.43-31.36,9.71Z"/><path d="M12.77,55c-.13.16-.24.15-.25-.08a1.56,1.56,0,0,1,.3-.9c6.1-4.66,21-4.71,30.32-8.68,8-3.43,7-8.15,16.83-11.24a1.36,1.36,0,0,1,1.16.06c.22.21.07.55-.31.69C53.49,37.6,50.07,43.24,43.14,46,33.41,50,18.68,49.95,12.82,54.9Z"/><path d="M67.1,69C45.1,64.31,27.73,55.59,14,42.36a1.5,1.5,0,0,0-2.08,2.16c14.13,13.63,32,22.61,54.54,27.43A1.5,1.5,0,0,0,67.1,69Z"/><path d="M77.31,64.06C49.74,57.89,33.18,46.64,25.77,40.48A1,1,0,1,0,24.49,42C32,48.29,48.89,59.75,76.87,66l.22,0a1,1,0,0,0,.22-2Z"/><path d="M88.94,58.74c-21.52-2.94-42-11.09-54.82-21.81a.5.5,0,0,0-.64.77c12.95,10.83,33.63,19.06,55.33,22h.07a.5.5,0,0,0,.07-1Z"/><path d="M97.88,52.91c-21.71-2.46-38.75-8.39-52.1-18.11a.5.5,0,1,0-.59.81c13.49,9.83,30.69,15.81,52.58,18.3h.06a.5.5,0,0,0,.06-1Z"/></svg>