<?xml version="1.0" standalone="no"?><!DOCTYPE svg PUBLIC "-//W3C//DTD SVG 1.1//EN" "http://www.w3.org/Graphics/SVG/1.1/DTD/svg11.dtd"><svg width="100%" height="100%" viewBox="0 0 66 30" version="1.1" xmlns="http://www.w3.org/2000/svg" xmlns:xlink="http://www.w3.org/1999/xlink" xml:space="preserve" style="fill-rule:evenodd;clip-rule:evenodd;stroke-linejoin:round;stroke-miterlimit:1.41421;"><g><path d="M22.537,29.25c-0.15,0 -0.225,-0.075 -0.15,-0.3c0,-0.225 0.15,-0.525 0.3,-0.675c6.9,-4.2 15.075,-4.875 21.9,-9.075c5.775,-3.6 9.9,-8.775 15.75,-12.075c0.15,-0.075 0.45,-0.075 0.525,0.075c0.15,0.15 0.075,0.45 -0.075,0.525c-5.85,3.225 -9.6,8.625 -15.375,12.3c-7.05,4.425 -15.675,4.725 -22.725,9.075c-0.15,0.075 -0.15,0.075 -0.15,0.15Z" style="fill:#a4a3a3;fill-rule:nonzero;"/><path d="M14.287,26.025c-0.15,0 -0.375,-0.075 -0.525,-0.225c-0.15,-0.15 -0.15,-0.375 0,-0.45c6.9,-3.3 15.225,-3.825 22.35,-8.325c6.6,-4.2 8.85,-9.15 16.2,-12.75c0.225,-0.075 0.45,-0.075 0.6,0.15c0.075,0.15 0,0.375 -0.225,0.525c-6.75,3.45 -10.2,8.7 -16.65,12.45c-7.05,4.05 -15.675,5.7 -21.75,8.625c0.075,0 0.075,0 0,0Z" style="fill:#a4a3a3;fill-rule:nonzero;"/><path d="M7.312,20.85c-0.075,0.075 -0.225,-0.075 -0.3,-0.225c-0.075,-0.225 -0.075,-0.525 0.075,-0.675c6.3,-4.5 15.9,-3.15 23.1,-7.425c5.85,-3.525 8.625,-8.775 15.15,-10.65c0.225,-0.075 0.45,-0.075 0.45,0.15c0,0.15 -0.15,0.375 -0.375,0.45c-6.375,1.65 -9,7.5 -14.55,11.025c-7.275,4.575 -16.95,2.55 -23.55,7.35c0,-0.075 0,0 0,0Z" style="fill:#a4a3a3;fill-rule:nonzero;"/><path d="M1.012,15.75c-0.075,0.15 -0.15,0.075 -0.15,-0.075c0,-0.225 0.075,-0.6 0.225,-0.675c4.575,-3.525 15.75,-3.525 22.725,-6.525c6,-2.55 5.25,-6.075 12.6,-8.4c0.3,-0.075 0.675,-0.15 0.9,0.075c0.15,0.15 0.075,0.375 -0.225,0.525c-5.475,2.1 -8.025,6.3 -13.275,8.4c-7.35,2.925 -18.375,2.85 -22.8,6.675c0,-0.075 0,0 0,0Z" style="fill:#a4a3a3;fill-rule:nonzero;"/></g><g><g><path d="M41.737,26.25c-16.5,-3.525 -29.55,-10.05 -39.825,-20.025c-0.45,-0.45 -1.125,-0.45 -1.575,0c-0.45,0.45 -0.45,1.125 0,1.575c10.575,10.2 24,16.95 40.875,20.55c0.075,0 0.15,0 0.225,0c0.525,0 0.975,-0.375 1.125,-0.9c0.15,-0.45 -0.225,-1.05 -0.825,-1.2Z" style="fill:#a4a3a3;fill-rule:nonzero;"/><path d="M49.387,22.575c-20.7,-4.65 -33.075,-13.05 -38.625,-17.7c-0.3,-0.3 -0.825,-0.225 -1.05,0.075c-0.3,0.3 -0.225,0.825 0.075,1.05c5.7,4.725 18.3,13.275 39.3,18c0.075,0 0.075,0 0.15,0c0.375,0 0.675,-0.225 0.75,-0.6c0.075,-0.375 -0.15,-0.75 -0.6,-0.825Z" style="fill:#a4a3a3;fill-rule:nonzero;"/><path d="M58.087,18.525c-16.125,-2.175 -31.5,-8.325 -41.1,-16.35c-0.15,-0.15 -0.375,-0.075 -0.525,0.075c-0.15,0.15 -0.075,0.375 0.075,0.525c9.675,8.1 25.2,14.325 41.475,16.5l0.075,0c0.15,0 0.375,-0.15 0.375,-0.3c0,-0.225 -0.15,-0.375 -0.375,-0.45Z" style="fill:#a4a3a3;fill-rule:nonzero;"/><path d="M64.837,14.175c-16.275,-1.875 -29.1,-6.3 -39.075,-13.575c-0.15,-0.15 -0.375,-0.075 -0.525,0.075c-0.15,0.15 -0.075,0.375 0.075,0.525c10.125,7.35 23.025,11.85 39.45,13.725l0.075,0c0.225,0 0.375,-0.15 0.375,-0.3c-0.075,-0.225 -0.225,-0.45 -0.375,-0.45Z" style="fill:#a4a3a3;fill-rule:nonzero;"/></g><g><g opacity="0.2"><path d="M41.737,26.25c-16.5,-3.525 -29.55,-10.05 -39.825,-20.025c-0.45,-0.45 -1.125,-0.45 -1.575,0c-0.45,0.45 -0.45,1.125 0,1.575c10.575,10.2 24,16.95 40.875,20.55c0.075,0 0.15,0 0.225,0c0.525,0 0.975,-0.375 1.125,-0.9c0.15,-0.45 -0.225,-1.05 -0.825,-1.2Z" style="fill:#000;fill-rule:nonzero;"/><path d="M49.387,22.575c-20.7,-4.65 -33.075,-13.05 -38.625,-17.7c-0.3,-0.3 -0.825,-0.225 -1.05,0.075c-0.3,0.3 -0.225,0.825 0.075,1.05c5.7,4.725 18.3,13.275 39.3,18c0.075,0 0.075,0 0.15,0c0.375,0 0.675,-0.225 0.75,-0.6c0.075,-0.375 -0.15,-0.75 -0.6,-0.825Z" style="fill:#000;fill-rule:nonzero;"/><path d="M58.087,18.525c-16.125,-2.175 -31.5,-8.325 -41.1,-16.35c-0.15,-0.15 -0.375,-0.075 -0.525,0.075c-0.15,0.15 -0.075,0.375 0.075,0.525c9.675,8.1 25.2,14.325 41.475,16.5l0.075,0c0.15,0 0.375,-0.15 0.375,-0.3c0,-0.225 -0.15,-0.375 -0.375,-0.45Z" style="fill:#000;fill-rule:nonzero;"/><path d="M64.837,14.175c-16.275,-1.875 -29.1,-6.3 -39.075,-13.575c-0.15,-0.15 -0.375,-0.075 -0.525,0.075c-0.15,0.15 -0.075,0.375 0.075,0.525c10.125,7.35 23.025,11.85 39.45,13.725l0.075,0c0.225,0 0.375,-0.15 0.375,-0.3c-0.075,-0.225 -0.225,-0.45 -0.375,-0.45Z" style="fill:#000;fill-rule:nonzero;"/></g></g></g></svg>