<?xml version="1.0" standalone="no"?><!DOCTYPE svg PUBLIC "-//W3C//DTD SVG 1.1//EN" "http://www.w3.org/Graphics/SVG/1.1/DTD/svg11.dtd"><svg width="100%" height="100%" viewBox="0 0 58 36" version="1.1" xmlns="http://www.w3.org/2000/svg" xmlns:xlink="http://www.w3.org/1999/xlink" xml:space="preserve" style="fill-rule:evenodd;clip-rule:evenodd;stroke-linejoin:round;stroke-miterlimit:1.41421;"><path d="M54.675,0l-31.35,0c-1.575,0 -2.85,1.125 -2.85,2.55l0,11.55l-18.9,0c-0.975,0 -1.575,0.825 -1.575,1.8l0,18.225c0,0.975 0.675,1.5 1.575,1.5l30.375,0c0.975,0 1.725,-0.75 1.725,-1.725l0,-4.2l21.075,0c1.575,0 2.85,-1.125 2.85,-2.55l0,-24.675c0,-1.35 -1.275,-2.475 -2.925,-2.475ZM56.475,27.15c0,0.75 -0.75,1.425 -1.725,1.425l-21.075,0l0,-12.825c0,-0.975 -0.75,-1.725 -1.725,-1.725l-10.35,0l0,-11.475c0,-0.75 0.75,-1.425 1.725,-1.425l31.35,0c0.975,0 1.725,0.6 1.725,1.425l0,24.6l0.075,0Z" style="fill:#a4a3a3;fill-rule:nonzero;"/><path d="M54.675,0l-31.35,0c-1.575,0 -2.85,1.125 -2.85,2.55l0,11.55l-18.9,0c-0.975,0 -1.575,0.825 -1.575,1.8l0,18.225c0,0.975 0.675,1.5 1.575,1.5l30.375,0c0.975,0 1.725,-0.75 1.725,-1.725l0,-4.2l21.075,0c1.575,0 2.85,-1.125 2.85,-2.55l0,-24.675c0,-1.35 -1.275,-2.475 -2.925,-2.475ZM56.475,27.15c0,0.75 -0.75,1.425 -1.725,1.425l-21.075,0l0,-12.825c0,-0.975 -0.75,-1.725 -1.725,-1.725l-10.35,0l0,-11.475c0,-0.75 0.75,-1.425 1.725,-1.425l31.35,0c0.975,0 1.725,0.6 1.725,1.425l0,24.6l0.075,0Z" style="fill:#000;fill-opacity:0.2;fill-rule:nonzero;"/></svg>