<svg id="top_master" data-name="top master" xmlns="http://www.w3.org/2000/svg" width="110" height="100" viewBox="0 0 110 100"><title>ARTS ICONS</title><path d="M89,29.47l-41.78,0a3.62,3.62,0,0,0-3.84,3.35V48.25H18.18a2.22,2.22,0,0,0-2.12,2.36V75a1.92,1.92,0,0,0,2.12,2H58.66a2.28,2.28,0,0,0,2.27-2.28V69.1l28.12,0a3.62,3.62,0,0,0,3.84-3.35V32.82A3.62,3.62,0,0,0,89,29.47Zm2.34,36.26A2.14,2.14,0,0,1,89,67.58l-28.12,0V50.52a2.28,2.28,0,0,0-2.27-2.28H44.93V32.85A2.14,2.14,0,0,1,47.27,31L89,31a2.14,2.14,0,0,1,2.34,1.85Z"/></svg>