<svg id="ICONS_-_HOVER" data-name="ICONS - HOVER" xmlns="http://www.w3.org/2000/svg" xmlns:xlink="http://www.w3.org/1999/xlink" width="110" height="100" viewBox="0 0 110 100"><defs><linearGradient id="ARTS_GRADIENT_hover" x1="27.97" y1="51.81" x2="82.05" y2="51.81" gradientUnits="userSpaceOnUse"><stop offset="0" stop-color="#5265ff"/><stop offset="0.04" stop-color="#516fff"/><stop offset="0.27" stop-color="#4b9cfd"/><stop offset="0.48" stop-color="#46c0fc"/><stop offset="0.68" stop-color="#43dafb"/><stop offset="0.86" stop-color="#41eafa"/><stop offset="1" stop-color="#40effa"/></linearGradient></defs><title>ARTS ICONS</title><path d="M55.72,75a27.51,27.51,0,0,1-17.21-5.83C30.18,62.42,26.76,53,28.35,41a1.4,1.4,0,0,1,2.78.37c-.54,4.07-2.2,16.44,9.14,25.55,7.23,5.81,18,6.88,26.8,2.66A20.62,20.62,0,0,0,79.25,50.46c0-12.28-9.14-18.43-17.65-19-7.25-.45-15.09,3.34-16.24,12.79a12.36,12.36,0,0,0,8.07,13.59c4.6,1.75,9.33.79,11.5-2.34a7.33,7.33,0,0,0,.58-7.92,4.77,4.77,0,0,0-5-2.21,1.4,1.4,0,0,1-.4-2.77,7.56,7.56,0,0,1,7.75,3.51,10,10,0,0,1-.66,11c-2.91,4.19-9,5.57-14.8,3.36A15.25,15.25,0,0,1,42.58,44c1-8.11,7.29-16,19.19-15.25,10.09.62,20.29,8.29,20.28,21.75A23.33,23.33,0,0,1,68.28,72.13,29.15,29.15,0,0,1,55.72,75Z" fill="url(#ARTS_GRADIENT_hover)"/></svg>