<?xml version="1.0" encoding="utf-8"?>
<!-- Generator: Adobe Illustrator 20.0.0, SVG Export Plug-In . SVG Version: 6.00 Build 0)  -->
<svg version="1.1" xmlns="http://www.w3.org/2000/svg" xmlns:xlink="http://www.w3.org/1999/xlink" x="0px" y="0px"
	 viewBox="0 0 110 100" enable-background="new 0 0 110 100" xml:space="preserve">
<g id="top_master" display="none">
	<path display="inline" d="M56,29.5c-4.5,0-8.7,1.2-12.3,3.4c-0.8-0.7-1.9-0.7-2.7-0.1c0,0,0,0-0.1,0.1l-0.2,0.2
		c-0.6,0.6-0.8,1.5-0.4,2.3c-0.9,0.7-1.7,1.6-2.4,2.4c-1.5-0.8-3.4-0.2-4.2,1.3c0,0,0,0.1-0.1,0.1l-0.2,0.4
		c-0.6,1.1-0.4,2.5,0.4,3.4c-0.5,1.2-0.9,2.8-1.3,5.4c-0.4,1.7-0.6,3.4-0.6,5.2C32,66.9,42.8,77.6,56,77.6s24.1-10.8,24.1-24.1
		S69.3,29.5,56,29.5z M40.9,36.1c0.8,0.6,1.9,0.7,2.6,0l0.2-0.2c0.7-0.6,0.8-1.5,0.5-2.3c3.4-2,7.5-3.2,11.7-3.2
		c12.8,0,23.2,10.4,23.2,23.2c0,4.2-1.1,8.1-3.1,11.5c1-2.3,1.6-4.8,1.8-7.5c0.5-10.3-7.7-16.4-16-17.1c-7-0.6-15.1,2.9-16.2,11.9
		c-0.9,7.2,3.7,11.7,7.9,13.3c4.2,1.7,8.5,1.2,11.1-1.3c0,0,0,0,0,0c1.1-1.1,2.6-2.5,3-4.7c1.1-6.7-3.6-10.7-7-9.5
		c-3,1-2.7,3.9-2.4,4.8c1.2,3.5,6.2,2.2,6.1,5c0,0.8-0.3,1.5-0.6,2c-0.4,0.6-1,1-1.6,1.4c-0.3,0.2-0.6,0.3-0.9,0.4
		C61.1,63.9,61,64,60.9,64c-1.9,0.6-4.2,0.5-6.5-0.4c-3.6-1.5-7.2-5.1-6.5-11c0.9-7.6,7.6-10.4,13.8-9.9c7.2,0.6,14.3,5.9,13.9,14.8
		c-0.3,6.9-4.1,12.5-10.5,15.4c-7,3.2-15.6,2.3-21.4-2.2c-8.5-6.7-9.6-16.9-9-21.4c0.3-2.4,0.7-3.9,1.1-5.1c1.3,0.2,2.6-0.4,3.2-1.6
		l0.2-0.4c0.7-1.3,0.4-2.9-0.6-3.9C39.3,37.5,40.1,36.8,40.9,36.1z M36.4,65.8c-0.1-0.1-0.2-0.2-0.2-0.4
		C36.2,65.6,36.3,65.7,36.4,65.8z"/>
</g>
<g id="ICONS_-_PRESSED">
	<g>
		<g>
			<g>
				<path fill="#A4A3A3" d="M55.7,78.8C50,78.8,44.4,77,40,73.6c-7.6-6.1-10.7-14.7-9.2-25.6c0.1-0.7,0.7-1.2,1.4-1.1
					c0.7,0.1,1.2,0.7,1.1,1.4c-0.5,3.7-2,14.9,8.3,23.2C48.2,76.8,58,77.8,66,74C73,70.6,77,64.3,77,56.6c0-11.2-8.3-16.8-16-17.2
					c-6.6-0.4-13.7,3-14.8,11.6c-0.8,6.7,3.3,10.8,7.3,12.4c4.2,1.6,8.5,0.7,10.5-2.1c1.8-2.6,1.6-5.5,0.5-7.2c-1-1.6-2.6-2.3-4.5-2
					c-0.7,0.1-1.3-0.4-1.4-1.1c-0.1-0.7,0.4-1.3,1.1-1.4c2.9-0.4,5.5,0.8,7,3.2c1.8,2.9,1.6,6.9-0.6,10c-2.6,3.8-8.2,5.1-13.5,3.1
					c-4.8-1.8-10-6.8-9-15c0.9-7.4,6.6-14.5,17.4-13.9c9.2,0.6,18.4,7.5,18.4,19.8c0,8.7-4.6,15.9-12.5,19.7
					C63.5,78,59.5,78.8,55.7,78.8z"/>
			</g>
		</g>
		<defs>
			<filter id="Adobe_OpacityMaskFilter" filterUnits="userSpaceOnUse" x="30.4" y="36.8" width="49.2" height="42.1">
				
					<feColorMatrix  type="matrix" values="-1 0 0 0 1  0 -1 0 0 1  0 0 -1 0 1  0 0 0 1 0" color-interpolation-filters="sRGB" result="source"/>
			</filter>
		</defs>
		<mask maskUnits="userSpaceOnUse" x="30.4" y="36.8" width="49.2" height="42.1" id="SVGID_1_">
			<g filter="url(#Adobe_OpacityMaskFilter)">
				
					<image overflow="visible" width="222" height="193" xlink:href="FE07A89026EC0.jpg"  transform="matrix(0.24 0 0 0.24 28.4302 34.7684)">
				</image>
			</g>
		</mask>
		<g opacity="0.2" mask="url(#SVGID_1_)">
			<g>
				<path d="M55.7,78.8C50,78.8,44.4,77,40,73.6c-7.6-6.1-10.7-14.7-9.2-25.6c0.1-0.7,0.7-1.2,1.4-1.1c0.7,0.1,1.2,0.7,1.1,1.4
					c-0.5,3.7-2,14.9,8.3,23.2C48.2,76.8,58,77.8,66,74C73,70.6,77,64.3,77,56.6c0-11.2-8.3-16.8-16-17.2c-6.6-0.4-13.7,3-14.8,11.6
					c-0.8,6.7,3.3,10.8,7.3,12.4c4.2,1.6,8.5,0.7,10.5-2.1c1.8-2.6,1.6-5.5,0.5-7.2c-1-1.6-2.6-2.3-4.5-2c-0.7,0.1-1.3-0.4-1.4-1.1
					c-0.1-0.7,0.4-1.3,1.1-1.4c2.9-0.4,5.5,0.8,7,3.2c1.8,2.9,1.6,6.9-0.6,10c-2.6,3.8-8.2,5.1-13.5,3.1c-4.8-1.8-10-6.8-9-15
					c0.9-7.4,6.6-14.5,17.4-13.9c9.2,0.6,18.4,7.5,18.4,19.8c0,8.7-4.6,15.9-12.5,19.7C63.5,78,59.5,78.8,55.7,78.8z"/>
			</g>
		</g>
	</g>
</g>
<g id="ICONS" display="none">
	<path display="inline" fill="none" stroke="#000000" stroke-width="2.5468" stroke-linecap="round" stroke-miterlimit="10" d="
		M59.9,50.7c5.9-0.9,8.8,6,5.2,11.2c-5.2,7.5-21.7,2.4-20.1-11.1c2.4-19.3,33.4-16.2,33.3,5.8c0,19.6-24.1,26.7-37.5,16
		c-10.4-8.4-9.4-19.7-8.8-24.4"/>
</g>
<g id="ICONS_-_HOVER" display="none">
	<g display="inline">
		<linearGradient id="SVGID_2_" gradientUnits="userSpaceOnUse" x1="30.4302" y1="57.8088" x2="79.5962" y2="57.8088">
			<stop  offset="0" style="stop-color:#5265FF"/>
			<stop  offset="4.300737e-02" style="stop-color:#516FFF"/>
			<stop  offset="0.2657" style="stop-color:#4B9CFD"/>
			<stop  offset="0.4792" style="stop-color:#46C0FC"/>
			<stop  offset="0.6784" style="stop-color:#43DAFB"/>
			<stop  offset="0.8577" style="stop-color:#41EAFA"/>
			<stop  offset="1" style="stop-color:#40EFFA"/>
		</linearGradient>
		<path fill="url(#SVGID_2_)" d="M55.7,78.8C50,78.8,44.4,77,40,73.6c-7.6-6.1-10.7-14.7-9.2-25.6c0.1-0.7,0.7-1.2,1.4-1.1
			c0.7,0.1,1.2,0.7,1.1,1.4c-0.5,3.7-2,14.9,8.3,23.2C48.2,76.8,58,77.8,66,74C73,70.6,77,64.3,77,56.6c0-11.2-8.3-16.8-16-17.2
			c-6.6-0.4-13.7,3-14.8,11.6c-0.8,6.7,3.3,10.8,7.3,12.4c4.2,1.6,8.5,0.7,10.5-2.1c1.8-2.6,1.6-5.5,0.5-7.2c-1-1.6-2.6-2.3-4.5-2
			c-0.7,0.1-1.3-0.4-1.4-1.1c-0.1-0.7,0.4-1.3,1.1-1.4c2.9-0.4,5.5,0.8,7,3.2c1.8,2.9,1.6,6.9-0.6,10c-2.6,3.8-8.2,5.1-13.5,3.1
			c-4.8-1.8-10-6.8-9-15c0.9-7.4,6.6-14.5,17.4-13.9c9.2,0.6,18.4,7.5,18.4,19.8c0,8.7-4.6,15.9-12.5,19.7
			C63.5,78,59.5,78.8,55.7,78.8z"/>
	</g>
</g>
</svg>
