<?xml version="1.0" standalone="no"?><!DOCTYPE svg PUBLIC "-//W3C//DTD SVG 1.1//EN" "http://www.w3.org/Graphics/SVG/1.1/DTD/svg11.dtd"><svg width="100%" height="100%" viewBox="0 0 37 37" version="1.1" xmlns="http://www.w3.org/2000/svg" xmlns:xlink="http://www.w3.org/1999/xlink" xml:space="preserve" style="fill-rule:evenodd;clip-rule:evenodd;stroke-linejoin:round;stroke-miterlimit:1.41421;"><path d="M18.075,0c-3.375,0 -6.525,0.9 -9.225,2.55c-0.6,-0.525 -1.425,-0.525 -2.025,-0.075l-0.075,0.075l-0.15,0.15c-0.45,0.45 -0.6,1.125 -0.3,1.725c-0.675,0.525 -1.275,1.2 -1.8,1.8c-1.125,-0.6 -2.55,-0.15 -3.15,0.975c0,0 0,0.075 -0.075,0.075l-0.15,0.3c-0.45,0.825 -0.3,1.875 0.3,2.55c-0.375,0.9 -0.675,2.1 -0.975,4.05c-0.3,1.275 -0.45,2.55 -0.45,3.9c0.075,9.975 8.175,18 18.075,18c9.9,0 18.075,-8.1 18.075,-18.075c0,-9.975 -8.1,-18 -18.075,-18ZM6.75,4.95c0.6,0.45 1.425,0.525 1.95,0l0.15,-0.15c0.525,-0.45 0.6,-1.125 0.375,-1.725c2.55,-1.5 5.625,-2.4 8.775,-2.4c9.6,0 17.4,7.8 17.4,17.4c0,3.15 -0.825,6.075 -2.325,8.625c0.75,-1.725 1.2,-3.6 1.35,-5.625c0.375,-7.725 -5.775,-12.3 -12,-12.825c-5.25,-0.45 -11.325,2.175 -12.15,8.925c-0.675,5.4 2.775,8.775 5.925,9.975c3.15,1.275 6.375,0.9 8.325,-0.975c0.825,-0.825 1.95,-1.875 2.25,-3.525c0.825,-5.025 -2.7,-8.025 -5.25,-7.125c-2.25,0.75 -2.025,2.925 -1.8,3.6c0.9,2.625 4.65,1.65 4.575,3.75c0,0.6 -0.225,1.125 -0.45,1.5c-0.3,0.45 -0.75,0.75 -1.2,1.05c-0.225,0.15 -0.45,0.225 -0.675,0.3c-0.075,0.075 -0.15,0.15 -0.225,0.15c-1.425,0.45 -3.15,0.375 -4.875,-0.3c-2.7,-1.125 -5.4,-3.825 -4.875,-8.25c0.675,-5.7 5.7,-7.8 10.35,-7.425c5.4,0.45 10.725,4.425 10.425,11.1c-0.225,5.175 -3.075,9.375 -7.875,11.55c-5.25,2.4 -11.7,1.725 -16.05,-1.65c-6.375,-5.025 -7.2,-12.675 -6.75,-16.05c0.225,-1.8 0.525,-2.925 0.825,-3.825c0.975,0.15 1.95,-0.3 2.4,-1.2l0.15,-0.3c0.525,-0.975 0.3,-2.175 -0.45,-2.925c0.525,-0.6 1.125,-1.125 1.725,-1.65ZM3.375,27.225c-0.075,-0.075 -0.15,-0.15 -0.15,-0.3c0,0.15 0.075,0.225 0.15,0.3Z" style="fill:#a4a3a3;fill-rule:nonzero;"/><path d="M18.075,0c-3.375,0 -6.525,0.9 -9.225,2.55c-0.6,-0.525 -1.425,-0.525 -2.025,-0.075l-0.075,0.075l-0.15,0.15c-0.45,0.45 -0.6,1.125 -0.3,1.725c-0.675,0.525 -1.275,1.2 -1.8,1.8c-1.125,-0.6 -2.55,-0.15 -3.15,0.975c0,0 0,0.075 -0.075,0.075l-0.15,0.3c-0.45,0.825 -0.3,1.875 0.3,2.55c-0.375,0.9 -0.675,2.1 -0.975,4.05c-0.3,1.275 -0.45,2.55 -0.45,3.9c0.075,9.975 8.175,18 18.075,18c9.9,0 18.075,-8.1 18.075,-18.075c0,-9.975 -8.1,-18 -18.075,-18ZM6.75,4.95c0.6,0.45 1.425,0.525 1.95,0l0.15,-0.15c0.525,-0.45 0.6,-1.125 0.375,-1.725c2.55,-1.5 5.625,-2.4 8.775,-2.4c9.6,0 17.4,7.8 17.4,17.4c0,3.15 -0.825,6.075 -2.325,8.625c0.75,-1.725 1.2,-3.6 1.35,-5.625c0.375,-7.725 -5.775,-12.3 -12,-12.825c-5.25,-0.45 -11.325,2.175 -12.15,8.925c-0.675,5.4 2.775,8.775 5.925,9.975c3.15,1.275 6.375,0.9 8.325,-0.975c0.825,-0.825 1.95,-1.875 2.25,-3.525c0.825,-5.025 -2.7,-8.025 -5.25,-7.125c-2.25,0.75 -2.025,2.925 -1.8,3.6c0.9,2.625 4.65,1.65 4.575,3.75c0,0.6 -0.225,1.125 -0.45,1.5c-0.3,0.45 -0.75,0.75 -1.2,1.05c-0.225,0.15 -0.45,0.225 -0.675,0.3c-0.075,0.075 -0.15,0.15 -0.225,0.15c-1.425,0.45 -3.15,0.375 -4.875,-0.3c-2.7,-1.125 -5.4,-3.825 -4.875,-8.25c0.675,-5.7 5.7,-7.8 10.35,-7.425c5.4,0.45 10.725,4.425 10.425,11.1c-0.225,5.175 -3.075,9.375 -7.875,11.55c-5.25,2.4 -11.7,1.725 -16.05,-1.65c-6.375,-5.025 -7.2,-12.675 -6.75,-16.05c0.225,-1.8 0.525,-2.925 0.825,-3.825c0.975,0.15 1.95,-0.3 2.4,-1.2l0.15,-0.3c0.525,-0.975 0.3,-2.175 -0.45,-2.925c0.525,-0.6 1.125,-1.125 1.725,-1.65ZM3.375,27.225c-0.075,-0.075 -0.15,-0.15 -0.15,-0.3c0,0.15 0.075,0.225 0.15,0.3Z" style="fill:#000;fill-opacity:0.2;fill-rule:nonzero;"/></svg>