<?xml version="1.0" standalone="no"?><!DOCTYPE svg PUBLIC "-//W3C//DTD SVG 1.1//EN" "http://www.w3.org/Graphics/SVG/1.1/DTD/svg11.dtd"><svg width="100%" height="100%" viewBox="0 0 36 36" version="1.1" xmlns="http://www.w3.org/2000/svg" xmlns:xlink="http://www.w3.org/1999/xlink" xml:space="preserve" style="fill-rule:evenodd;clip-rule:evenodd;stroke-linejoin:round;stroke-miterlimit:1.41421;"><path d="M18,0c-9.9,0 -18,8.1 -18,18c0,9.9 8.1,18 18,18c9.9,0 18,-8.1 18,-18c0,-9.9 -8.1,-18 -18,-18ZM18,34.5c-9.075,0 -16.5,-7.425 -16.5,-16.5c0,-9.075 7.425,-16.5 16.5,-16.5c9.075,0 16.5,7.425 16.5,16.5c0,9.075 -7.425,16.5 -16.5,16.5Z" style="fill:url(#_Linear1);fill-rule:nonzero;"/><path d="M18,5.025c-7.125,0 -12.9,5.775 -12.9,12.9c0,7.125 5.775,12.9 12.9,12.9c7.125,0 12.9,-5.775 12.9,-12.9c0,-7.125 -5.775,-12.9 -12.9,-12.9ZM18,30.525c-6.9,0 -12.6,-5.625 -12.6,-12.6c0,-6.975 5.625,-12.525 12.6,-12.525c6.975,0 12.525,5.7 12.525,12.6c0,6.9 -5.625,12.525 -12.525,12.525Z" style="fill:url(#_Linear2);fill-rule:nonzero;"/><defs><linearGradient id="_Linear1" x1="0" y1="0" x2="1" y2="0" gradientUnits="userSpaceOnUse" gradientTransform="matrix(17.9963,-31.1706,31.1706,17.9963,8.96595,33.5795)"><stop offset="0%" style="stop-color:#5265ff;stop-opacity:1"/><stop offset="4%" style="stop-color:#516fff;stop-opacity:1"/><stop offset="26%" style="stop-color:#4b9cfd;stop-opacity:1"/><stop offset="47%" style="stop-color:#46c0fc;stop-opacity:1"/><stop offset="67%" style="stop-color:#43dafb;stop-opacity:1"/><stop offset="85%" style="stop-color:#41eafa;stop-opacity:1"/><stop offset="100%" style="stop-color:#40effa;stop-opacity:1"/></linearGradient><linearGradient id="_Linear2" x1="0" y1="0" x2="1" y2="0" gradientUnits="userSpaceOnUse" gradientTransform="matrix(12.935,-22.4039,22.4039,12.935,11.4967,29.1961)"><stop offset="0%" style="stop-color:#5265ff;stop-opacity:1"/><stop offset="4%" style="stop-color:#516fff;stop-opacity:1"/><stop offset="26%" style="stop-color:#4b9cfd;stop-opacity:1"/><stop offset="47%" style="stop-color:#46c0fc;stop-opacity:1"/><stop offset="67%" style="stop-color:#43dafb;stop-opacity:1"/><stop offset="85%" style="stop-color:#41eafa;stop-opacity:1"/><stop offset="100%" style="stop-color:#40effa;stop-opacity:1"/></linearGradient></defs></svg>