<svg id="ICONS_-_HOVER" data-name="ICONS - HOVER" xmlns="http://www.w3.org/2000/svg" xmlns:xlink="http://www.w3.org/1999/xlink" width="110" height="100" viewBox="0 0 110 100"><defs><linearGradient id="ARTS_GRADIENT_hover" x1="43.25" y1="74.37" x2="67.25" y2="32.81" gradientUnits="userSpaceOnUse"><stop offset="0" stop-color="#5265ff"/><stop offset="0.04" stop-color="#516fff"/><stop offset="0.27" stop-color="#4b9cfd"/><stop offset="0.48" stop-color="#46c0fc"/><stop offset="0.68" stop-color="#43dafb"/><stop offset="0.86" stop-color="#41eafa"/><stop offset="1" stop-color="#40effa"/></linearGradient><linearGradient id="ARTS_GRADIENT_hover-2" x1="46.63" y1="68.53" x2="63.88" y2="38.66" xlink:href="#ARTS_GRADIENT_hover"/></defs><title>ARTS ICONS</title><path d="M55.25,29.59a24,24,0,1,0,24,24A24,24,0,0,0,55.25,29.59Zm0,46a22,22,0,1,1,22-22A22,22,0,0,1,55.25,75.59Z" fill="url(#ARTS_GRADIENT_hover)"/><path d="M55.25,36.34A17.25,17.25,0,1,0,72.5,53.59,17.27,17.27,0,0,0,55.25,36.34Zm0,34A16.75,16.75,0,1,1,72,53.59,16.77,16.77,0,0,1,55.25,70.34Z" fill="url(#ARTS_GRADIENT_hover-2)"/></svg>