<?xml version="1.0" standalone="no"?><!DOCTYPE svg PUBLIC "-//W3C//DTD SVG 1.1//EN" "http://www.w3.org/Graphics/SVG/1.1/DTD/svg11.dtd"><svg width="100%" height="100%" viewBox="0 0 36 36" version="1.1" xmlns="http://www.w3.org/2000/svg" xmlns:xlink="http://www.w3.org/1999/xlink" xml:space="preserve" style="fill-rule:evenodd;clip-rule:evenodd;stroke-linejoin:round;stroke-miterlimit:1.41421;"><g><path d="M18,0c-9.9,0 -18,8.1 -18,18c0,9.9 8.1,18 18,18c9.9,0 18,-8.1 18,-18c0,-9.9 -8.1,-18 -18,-18ZM18,34.5c-9.075,0 -16.5,-7.425 -16.5,-16.5c0,-9.075 7.425,-16.5 16.5,-16.5c9.075,0 16.5,7.425 16.5,16.5c0,9.075 -7.425,16.5 -16.5,16.5Z" style="fill:#a4a3a3;fill-rule:nonzero;"/><path d="M18,5.025c-7.125,0 -12.9,5.775 -12.9,12.9c0,7.125 5.775,12.9 12.9,12.9c7.125,0 12.9,-5.775 12.9,-12.9c0,-7.125 -5.775,-12.9 -12.9,-12.9ZM18,30.525c-6.9,0 -12.6,-5.625 -12.6,-12.6c0,-6.975 5.625,-12.525 12.6,-12.525c6.975,0 12.525,5.7 12.525,12.6c0,6.9 -5.625,12.525 -12.525,12.525Z" style="fill:#a4a3a3;fill-rule:nonzero;"/></g><g><g opacity="0.2"><path d="M18,0c-9.9,0 -18,8.1 -18,18c0,9.9 8.1,18 18,18c9.9,0 18,-8.1 18,-18c0,-9.9 -8.1,-18 -18,-18ZM18,34.5c-9.075,0 -16.5,-7.425 -16.5,-16.5c0,-9.075 7.425,-16.5 16.5,-16.5c9.075,0 16.5,7.425 16.5,16.5c0,9.075 -7.425,16.5 -16.5,16.5Z" style="fill:#000;fill-rule:nonzero;"/><path d="M18,5.025c-7.125,0 -12.9,5.775 -12.9,12.9c0,7.125 5.775,12.9 12.9,12.9c7.125,0 12.9,-5.775 12.9,-12.9c0,-7.125 -5.775,-12.9 -12.9,-12.9ZM18,30.525c-6.9,0 -12.6,-5.625 -12.6,-12.6c0,-6.975 5.625,-12.525 12.6,-12.525c6.975,0 12.525,5.7 12.525,12.6c0,6.9 -5.625,12.525 -12.525,12.525Z" style="fill:#000;fill-rule:nonzero;"/></g></g></svg>