<?xml version="1.0" standalone="no"?><!DOCTYPE svg PUBLIC "-//W3C//DTD SVG 1.1//EN" "http://www.w3.org/Graphics/SVG/1.1/DTD/svg11.dtd"><svg width="100%" height="100%" viewBox="0 0 38 30" version="1.1" xmlns="http://www.w3.org/2000/svg" xmlns:xlink="http://www.w3.org/1999/xlink" xml:space="preserve" style="fill-rule:evenodd;clip-rule:evenodd;stroke-linejoin:round;stroke-miterlimit:1.41421;"><path d="M18.975,18.15c-0.9,0 -1.65,0.375 -2.25,0.9c-0.6,0.525 -0.9,1.35 -0.9,2.25c0,0.9 0.375,1.65 0.9,2.25c0.525,0.6 1.35,0.9 2.25,0.9c0.9,0 1.65,-0.375 2.25,-0.9c0.6,-0.525 0.9,-1.35 0.9,-2.25c0,-0.9 -0.375,-1.65 -0.9,-2.25c-0.525,-0.6 -1.425,-0.9 -2.25,-0.9Z" style="fill:url(#_Linear1);fill-rule:nonzero;"/><path d="M18.975,0c-14.325,0 -18.375,11.025 -18.375,11.025l36.675,0c0,-0.075 -3.975,-11.025 -18.3,-11.025Z" style="fill:url(#_Linear2);fill-rule:nonzero;"/><rect x="0" y="13.5" width="1.125" height="15.75" style="fill:url(#_Linear3);"/><rect x="36.75" y="13.5" width="1.125" height="15.75" style="fill:url(#_Linear4);"/><defs><linearGradient id="_Linear1" x1="0" y1="0" x2="1" y2="0" gradientUnits="userSpaceOnUse" gradientTransform="matrix(3.19688,-5.5371,5.5371,3.19688,17.353,24.1517)"><stop offset="0%" style="stop-color:#5265ff;stop-opacity:1"/><stop offset="4%" style="stop-color:#516fff;stop-opacity:1"/><stop offset="26%" style="stop-color:#4b9cfd;stop-opacity:1"/><stop offset="47%" style="stop-color:#46c0fc;stop-opacity:1"/><stop offset="67%" style="stop-color:#43dafb;stop-opacity:1"/><stop offset="85%" style="stop-color:#41eafa;stop-opacity:1"/><stop offset="100%" style="stop-color:#40effa;stop-opacity:1"/></linearGradient><linearGradient id="_Linear2" x1="0" y1="0" x2="1" y2="0" gradientUnits="userSpaceOnUse" gradientTransform="matrix(10.8975,-18.8751,18.8751,10.8975,14.3122,18.8942)"><stop offset="0%" style="stop-color:#5265ff;stop-opacity:1"/><stop offset="4%" style="stop-color:#516fff;stop-opacity:1"/><stop offset="26%" style="stop-color:#4b9cfd;stop-opacity:1"/><stop offset="47%" style="stop-color:#46c0fc;stop-opacity:1"/><stop offset="67%" style="stop-color:#43dafb;stop-opacity:1"/><stop offset="85%" style="stop-color:#41eafa;stop-opacity:1"/><stop offset="100%" style="stop-color:#40effa;stop-opacity:1"/></linearGradient><linearGradient id="_Linear3" x1="0" y1="0" x2="1" y2="0" gradientUnits="userSpaceOnUse" gradientTransform="matrix(7.10602,-12.308,12.308,7.10602,-2.94277,27.5373)"><stop offset="0%" style="stop-color:#5265ff;stop-opacity:1"/><stop offset="4%" style="stop-color:#516fff;stop-opacity:1"/><stop offset="26%" style="stop-color:#4b9cfd;stop-opacity:1"/><stop offset="47%" style="stop-color:#46c0fc;stop-opacity:1"/><stop offset="67%" style="stop-color:#43dafb;stop-opacity:1"/><stop offset="85%" style="stop-color:#41eafa;stop-opacity:1"/><stop offset="100%" style="stop-color:#40effa;stop-opacity:1"/></linearGradient><linearGradient id="_Linear4" x1="0" y1="0" x2="1" y2="0" gradientUnits="userSpaceOnUse" gradientTransform="matrix(7.10602,-12.308,12.308,7.10602,33.7399,27.5373)"><stop offset="0%" style="stop-color:#5265ff;stop-opacity:1"/><stop offset="4%" style="stop-color:#516fff;stop-opacity:1"/><stop offset="26%" style="stop-color:#4b9cfd;stop-opacity:1"/><stop offset="47%" style="stop-color:#46c0fc;stop-opacity:1"/><stop offset="67%" style="stop-color:#43dafb;stop-opacity:1"/><stop offset="85%" style="stop-color:#41eafa;stop-opacity:1"/><stop offset="100%" style="stop-color:#40effa;stop-opacity:1"/></linearGradient></defs></svg>