<?xml version="1.0" standalone="no"?><!DOCTYPE svg PUBLIC "-//W3C//DTD SVG 1.1//EN" "http://www.w3.org/Graphics/SVG/1.1/DTD/svg11.dtd"><svg width="100%" height="100%" viewBox="0 0 38 30" version="1.1" xmlns="http://www.w3.org/2000/svg" xmlns:xlink="http://www.w3.org/1999/xlink" xml:space="preserve" style="fill-rule:evenodd;clip-rule:evenodd;stroke-linejoin:round;stroke-miterlimit:1.41421;"><g><path d="M18.975,18.15c-0.9,0 -1.65,0.375 -2.25,0.9c-0.6,0.525 -0.9,1.35 -0.9,2.25c0,0.9 0.375,1.65 0.9,2.25c0.525,0.6 1.35,0.9 2.25,0.9c0.9,0 1.65,-0.375 2.25,-0.9c0.6,-0.525 0.9,-1.35 0.9,-2.25c0,-0.9 -0.375,-1.65 -0.9,-2.25c-0.525,-0.6 -1.425,-0.9 -2.25,-0.9Z" style="fill:#a4a3a3;fill-rule:nonzero;"/><path d="M18.975,0c-14.325,0 -18.375,11.025 -18.375,11.025l36.675,0c0,-0.075 -3.975,-11.025 -18.3,-11.025Z" style="fill:#a4a3a3;fill-rule:nonzero;"/><rect x="0" y="13.5" width="1.125" height="15.75" style="fill:#a4a3a3;"/><rect x="36.75" y="13.5" width="1.125" height="15.75" style="fill:#a4a3a3;"/></g><g><g opacity="0.2"><path d="M18.975,18.15c-0.9,0 -1.65,0.375 -2.25,0.9c-0.6,0.525 -0.9,1.35 -0.9,2.25c0,0.9 0.375,1.65 0.9,2.25c0.525,0.6 1.35,0.9 2.25,0.9c0.9,0 1.65,-0.375 2.25,-0.9c0.6,-0.525 0.9,-1.35 0.9,-2.25c0,-0.9 -0.375,-1.65 -0.9,-2.25c-0.525,-0.6 -1.425,-0.9 -2.25,-0.9Z" style="fill:#000;fill-rule:nonzero;"/><path d="M18.975,0c-14.325,0 -18.375,11.025 -18.375,11.025l36.675,0c0,-0.075 -3.975,-11.025 -18.3,-11.025Z" style="fill:#000;fill-rule:nonzero;"/><rect x="0" y="13.5" width="1.125" height="15.75" style="fill:#000;"/><rect x="36.75" y="13.5" width="1.125" height="15.75" style="fill:#000;"/></g></g></svg>