<svg id="top_master" data-name="top master" xmlns="http://www.w3.org/2000/svg" width="110" height="100" viewBox="0 0 110 100"><title>ARTS ICONS</title><path d="M35.52,41.89c-6.46,0-15.37,5.24-15.37,11.7s8.91,11.7,15.37,11.7,15.38-5.24,15.38-11.7S42,41.89,35.52,41.89Zm0,20.12a8.42,8.42,0,1,1,8.42-8.42A8.42,8.42,0,0,1,35.52,62Z"/><path d="M75,41.89c-6.46,0-15.37,5.24-15.37,11.7S68.55,65.29,75,65.29s15.38-5.24,15.38-11.7S81.48,41.89,75,41.89ZM75,62a8.42,8.42,0,1,1,8.42-8.42A8.42,8.42,0,0,1,75,62Z"/></svg>