<svg id="ICONS_-_HOVER" data-name="ICONS - HOVER" xmlns="http://www.w3.org/2000/svg" xmlns:xlink="http://www.w3.org/1999/xlink" width="110" height="100" viewBox="0 0 110 100"><defs><linearGradient id="ARTS_GRADIENT_hover" x1="29.37" y1="64.23" x2="41.66" y2="42.95" gradientUnits="userSpaceOnUse"><stop offset="0" stop-color="#5265ff"/><stop offset="0.04" stop-color="#516fff"/><stop offset="0.27" stop-color="#4b9cfd"/><stop offset="0.48" stop-color="#46c0fc"/><stop offset="0.68" stop-color="#43dafb"/><stop offset="0.86" stop-color="#41eafa"/><stop offset="1" stop-color="#40effa"/></linearGradient><linearGradient id="ARTS_GRADIENT_hover-2" x1="68.87" y1="64.23" x2="81.16" y2="42.95" xlink:href="#ARTS_GRADIENT_hover"/></defs><title>ARTS ICONS</title><path d="M35.52,41.89c-6.46,0-15.37,5.24-15.37,11.7s8.91,11.7,15.37,11.7,15.38-5.24,15.38-11.7S42,41.89,35.52,41.89Zm0,20.12a8.42,8.42,0,1,1,8.42-8.42A8.42,8.42,0,0,1,35.52,62Z" fill="url(#ARTS_GRADIENT_hover)"/><path d="M75,41.89c-6.46,0-15.37,5.24-15.37,11.7S68.55,65.29,75,65.29s15.38-5.24,15.38-11.7S81.48,41.89,75,41.89ZM75,62a8.42,8.42,0,1,1,8.42-8.42A8.42,8.42,0,0,1,75,62Z" fill="url(#ARTS_GRADIENT_hover-2)"/></svg>