<?xml version="1.0" standalone="no"?><!DOCTYPE svg PUBLIC "-//W3C//DTD SVG 1.1//EN" "http://www.w3.org/Graphics/SVG/1.1/DTD/svg11.dtd"><svg width="100%" height="100%" viewBox="0 0 53 18" version="1.1" xmlns="http://www.w3.org/2000/svg" xmlns:xlink="http://www.w3.org/1999/xlink" xml:space="preserve" style="fill-rule:evenodd;clip-rule:evenodd;stroke-linejoin:round;stroke-miterlimit:1.41421;"><path d="M11.55,0c-4.875,0 -11.55,3.9 -11.55,8.775c0,4.875 6.675,8.775 11.55,8.775c4.875,0 11.55,-3.9 11.55,-8.775c0,-4.875 -6.675,-8.775 -11.55,-8.775ZM11.55,15.075c-3.525,0 -6.3,-2.85 -6.3,-6.3c0,-3.525 2.85,-6.3 6.3,-6.3c3.45,0 6.3,2.85 6.3,6.3c0,3.45 -2.775,6.3 -6.3,6.3Z" style="fill:url(#_Linear1);fill-rule:nonzero;"/><path d="M41.175,0c-4.875,0 -11.55,3.9 -11.55,8.775c0,4.875 6.75,8.775 11.55,8.775c4.8,0 11.55,-3.9 11.55,-8.775c0,-4.875 -6.675,-8.775 -11.55,-8.775ZM41.175,15.075c-3.525,0 -6.3,-2.85 -6.3,-6.3c0,-3.525 2.85,-6.3 6.3,-6.3c3.525,0 6.3,2.85 6.3,6.3c0,3.45 -2.775,6.3 -6.3,6.3Z" style="fill:url(#_Linear2);fill-rule:nonzero;"/><defs><linearGradient id="_Linear1" x1="0" y1="0" x2="1" y2="0" gradientUnits="userSpaceOnUse" gradientTransform="matrix(9.21653,-15.9634,15.9634,9.21653,6.95317,16.751)"><stop offset="0%" style="stop-color:#5265ff;stop-opacity:1"/><stop offset="4%" style="stop-color:#516fff;stop-opacity:1"/><stop offset="26%" style="stop-color:#4b9cfd;stop-opacity:1"/><stop offset="47%" style="stop-color:#46c0fc;stop-opacity:1"/><stop offset="67%" style="stop-color:#43dafb;stop-opacity:1"/><stop offset="85%" style="stop-color:#41eafa;stop-opacity:1"/><stop offset="100%" style="stop-color:#40effa;stop-opacity:1"/></linearGradient><linearGradient id="_Linear2" x1="0" y1="0" x2="1" y2="0" gradientUnits="userSpaceOnUse" gradientTransform="matrix(9.21645,-15.9634,15.9634,9.21645,36.5781,16.751)"><stop offset="0%" style="stop-color:#5265ff;stop-opacity:1"/><stop offset="4%" style="stop-color:#516fff;stop-opacity:1"/><stop offset="26%" style="stop-color:#4b9cfd;stop-opacity:1"/><stop offset="47%" style="stop-color:#46c0fc;stop-opacity:1"/><stop offset="67%" style="stop-color:#43dafb;stop-opacity:1"/><stop offset="85%" style="stop-color:#41eafa;stop-opacity:1"/><stop offset="100%" style="stop-color:#40effa;stop-opacity:1"/></linearGradient></defs></svg>