<?xml version="1.0" encoding="utf-8"?>
<!-- Generator: Adobe Illustrator 16.0.0, SVG Export Plug-In . SVG Version: 6.00 Build 0)  -->
<!DOCTYPE svg PUBLIC "-//W3C//DTD SVG 1.1//EN" "http://www.w3.org/Graphics/SVG/1.1/DTD/svg11.dtd">
<svg version="1.1" id="Layer_1" xmlns="http://www.w3.org/2000/svg" xmlns:xlink="http://www.w3.org/1999/xlink" x="0px" y="0px"
	 width="107.499px" height="247.527px" viewBox="0 0 107.499 247.527" enable-background="new 0 0 107.499 247.527"
	 xml:space="preserve">
<line fill="none" stroke="#000000" stroke-width="0.5" stroke-linecap="round" stroke-linejoin="round" stroke-miterlimit="10" x1="56.973" y1="10.61" x2="94.457" y2="79.043"/>
<g>
	<defs>
		<rect id="SVGID_1_" width="107.499" height="247.527"/>
	</defs>
	<clipPath id="SVGID_2_">
		<use xlink:href="#SVGID_1_"  overflow="visible"/>
	</clipPath>
	
		<polygon clip-path="url(#SVGID_2_)" fill="none" stroke="#000000" stroke-width="0.5" stroke-linecap="round" stroke-linejoin="round" stroke-miterlimit="10" points="
		72.551,4.684 44.468,45.434 0.25,31.785 3.708,75.276 97.901,102.852 102.815,26.714 	"/>
	
		<line clip-path="url(#SVGID_2_)" fill="none" stroke="#000000" stroke-width="0.5" stroke-linecap="round" stroke-linejoin="round" stroke-miterlimit="10" x1="72.551" y1="4.684" x2="0.25" y2="31.785"/>
</g>
<polyline fill="none" stroke="#000000" stroke-width="0.5" stroke-linecap="round" stroke-linejoin="round" stroke-miterlimit="10" points="
	33.008,83.854 34.759,90.46 62.812,110.05 98.946,86.652 "/>
<g>
	<defs>
		<rect id="SVGID_3_" width="107.499" height="247.527"/>
	</defs>
	<clipPath id="SVGID_4_">
		<use xlink:href="#SVGID_3_"  overflow="visible"/>
	</clipPath>
	
		<polyline clip-path="url(#SVGID_4_)" fill="none" stroke="#000000" stroke-width="0.5" stroke-linecap="round" stroke-linejoin="round" stroke-miterlimit="10" points="
		51.08,58.401 3.708,75.277 22.725,0.25 51.08,58.401 102.815,26.715 88.384,67.845 69.467,77.237 	"/>
</g>
<line fill="none" stroke="#000000" stroke-width="0.5" stroke-linecap="round" stroke-linejoin="round" stroke-miterlimit="10" x1="62.812" y1="110.051" x2="75.655" y2="46.729"/>
<line fill="none" stroke="#000000" stroke-width="3.402" stroke-miterlimit="10" x1="73.653" y1="56.991" x2="66.457" y2="92.058"/>
<polygon fill="#231F20" points="45.454,46.864 20.376,21.216 22.808,18.837 47.077,43.657 "/>
<line fill="none" stroke="#000000" stroke-width="3.402" stroke-miterlimit="10" x1="64.479" y1="23.757" x2="97.064" y2="83.854"/>
<polygon fill="#231F20" points="45.49,46.777 43.423,43.78 61.566,17.455 64.367,19.386 "/>
<g>
	<defs>
		<rect id="SVGID_5_" width="107.499" height="247.527"/>
	</defs>
	<clipPath id="SVGID_6_">
		<use xlink:href="#SVGID_5_"  overflow="visible"/>
	</clipPath>
	
		<line clip-path="url(#SVGID_6_)" fill="none" stroke="#231F20" stroke-width="3.402" stroke-miterlimit="10" x1="6.692" y1="63.504" x2="18.844" y2="15.561"/>
</g>
<line fill="none" stroke="#000000" stroke-width="0.5" stroke-linecap="round" stroke-linejoin="round" stroke-miterlimit="10" x1="51.08" y1="58.401" x2="43.981" y2="96.656"/>
<g>
	<defs>
		<rect id="SVGID_7_" width="107.499" height="247.527"/>
	</defs>
	<clipPath id="SVGID_8_">
		<use xlink:href="#SVGID_7_"  overflow="visible"/>
	</clipPath>
	<g clip-path="url(#SVGID_8_)">
		<text transform="matrix(1 0 0 1 0.1025 173.8481)"><tspan x="0" y="0" font-family="'Roboto-Thin'" font-size="29.1746">Minist</tspan><tspan x="76.754" y="0" font-family="'Roboto-Thin'" font-size="29.1746">r</tspan><tspan x="86.746" y="0" font-family="'Roboto-Thin'" font-size="29.1746">y </tspan></text>
	</g>
	<g clip-path="url(#SVGID_8_)">
		<text transform="matrix(1 0 0 1 0.1025 206.728)" font-family="'Roboto-Thin'" font-size="29.1746">for the </text>
	</g>
	<g clip-path="url(#SVGID_8_)">
		<text transform="matrix(1 0 0 1 0.1025 239.6079)"><tspan x="0" y="0" font-family="'Roboto-Thin'" font-size="29.1746">A</tspan><tspan x="17.422" y="0" font-family="'Roboto-Thin'" font-size="29.1746">r</tspan><tspan x="27.414" y="0" font-family="'Roboto-Thin'" font-size="29.1746">ts</tspan></text>
	</g>
</g>
<rect x="2.896" y="134.185" width="97.272" height="3.364"/>
</svg>
